<svg id="Layer_1" data-name="Layer 1" xmlns="http://www.w3.org/2000/svg" viewBox="0 0 106 134"><defs><style>.cls-1{fill:none;stroke:#f55;stroke-width:3px;}</style></defs><title>letter-Artboard 1</title><path class="cls-1" d="M5.5,4.72H59.26c21.76,0,36.48,7,36.48,28.32,0,11.2-5.6,19-15.52,23.84,13.92,4,21,14.72,21,29C101.18,109,81.5,119,60.86,119H5.5ZM30.62,51H56.06c8.8,0,15.36-4,15.36-13.6,0-10.88-8.32-13.12-17.28-13.12H30.62Zm0,48.48H57.5c9.92,0,18.56-3.2,18.56-15,0-11.68-7.36-16.32-18.08-16.32H30.62Z"/></svg>