<svg id="Layer_1" data-name="Layer 1" xmlns="http://www.w3.org/2000/svg" viewBox="0 0 120 134"><defs><style>.cls-1{fill:none;stroke:#f55;stroke-width:3px;}</style></defs><title>letter-Artboard 13</title><path class="cls-1" d="M103.5,129.68,87.34,115c-7.52,4.32-17,6.72-27.68,6.72C24.3,121.68,3.5,95.28,3.5,62.32,3.5,28.4,24.3,2,59.66,2s56.16,26.4,56.16,60.32c0,16.48-5.28,31.2-14.88,42.08l14.24,13Zm-32.8-53,13,11.84c4.16-5.76,7-14.4,7-26.24,0-20-8.48-39.2-31-39.2s-31,19.2-31,39.2c0,19,8.48,38.24,31,38.24,3.68,0,8.32,0,10.08-1.6L59,89.2Z"/></svg>