<svg id="Layer_1" data-name="Layer 1" xmlns="http://www.w3.org/2000/svg" viewBox="0 0 109 134"><defs><style>.cls-1{fill:none;stroke:#f55;stroke-width:3px;}</style></defs><title>letter-Artboard 18</title><path class="cls-1" d="M5.5,4.72H67.1c20.48,0,33.44,14.24,33.44,31.52,0,13.44-5.44,23.52-18.08,28.64v.32C94.78,68.4,98.3,80.4,99.1,91.92c.48,7.2.32,20.64,4.8,27H78.78c-3-7.2-2.72-18.24-4-27.36-1.76-12-6.4-17.28-19-17.28H30.62V119H5.5ZM30.62,56.4H58.14c11.2,0,17.28-4.8,17.28-16.32,0-11-6.08-15.84-17.28-15.84H30.62Z"/></svg>